<mxfile host="app.diagrams.net" agent="Mozilla/5.0 (X11; Linux x86_64) AppleWebKit/537.36 (KHTML, like Gecko) Chrome/130.0.0.0 Safari/537.36" version="25.0.1">
  <diagram name="Page-1" id="uFzrBY0HqWWGP7Bu0Mum">
    <mxGraphModel dx="1368" dy="754" grid="1" gridSize="10" guides="1" tooltips="1" connect="1" arrows="1" fold="1" page="1" pageScale="1" pageWidth="850" pageHeight="1100" math="0" shadow="0">
      <root>
        <mxCell id="0" />
        <mxCell id="1" parent="0" />
        <mxCell id="HLmSkkcaPyzwlUYzEDBW-21" value="Region" style="points=[[0,0],[0.25,0],[0.5,0],[0.75,0],[1,0],[1,0.25],[1,0.5],[1,0.75],[1,1],[0.75,1],[0.5,1],[0.25,1],[0,1],[0,0.75],[0,0.5],[0,0.25]];outlineConnect=0;gradientColor=none;html=1;whiteSpace=wrap;fontSize=12;fontStyle=0;container=1;pointerEvents=0;collapsible=0;recursiveResize=0;shape=mxgraph.aws4.group;grIcon=mxgraph.aws4.group_region;strokeColor=#00A4A6;fillColor=none;verticalAlign=top;align=left;spacingLeft=30;fontColor=#147EBA;dashed=1;" parent="1" vertex="1">
          <mxGeometry x="50" y="240" width="670" height="680" as="geometry" />
        </mxCell>
        <mxCell id="HLmSkkcaPyzwlUYzEDBW-22" value="VPC -C&amp;nbsp;" style="points=[[0,0],[0.25,0],[0.5,0],[0.75,0],[1,0],[1,0.25],[1,0.5],[1,0.75],[1,1],[0.75,1],[0.5,1],[0.25,1],[0,1],[0,0.75],[0,0.5],[0,0.25]];outlineConnect=0;gradientColor=none;html=1;whiteSpace=wrap;fontSize=12;fontStyle=0;container=1;pointerEvents=0;collapsible=0;recursiveResize=0;shape=mxgraph.aws4.group;grIcon=mxgraph.aws4.group_vpc2;strokeColor=#8C4FFF;fillColor=none;verticalAlign=top;align=left;spacingLeft=30;fontColor=#AAB7B8;dashed=0;" parent="HLmSkkcaPyzwlUYzEDBW-21" vertex="1">
          <mxGeometry x="240" y="70" width="259" height="200" as="geometry" />
        </mxCell>
        <mxCell id="HLmSkkcaPyzwlUYzEDBW-2" value="Public subnet" style="points=[[0,0],[0.25,0],[0.5,0],[0.75,0],[1,0],[1,0.25],[1,0.5],[1,0.75],[1,1],[0.75,1],[0.5,1],[0.25,1],[0,1],[0,0.75],[0,0.5],[0,0.25]];outlineConnect=0;gradientColor=none;html=1;whiteSpace=wrap;fontSize=12;fontStyle=0;container=1;pointerEvents=0;collapsible=0;recursiveResize=0;shape=mxgraph.aws4.group;grIcon=mxgraph.aws4.group_security_group;grStroke=0;strokeColor=#7AA116;fillColor=#F2F6E8;verticalAlign=top;align=left;spacingLeft=30;fontColor=#248814;dashed=0;" parent="HLmSkkcaPyzwlUYzEDBW-22" vertex="1">
          <mxGeometry x="50" y="30" width="170" height="140" as="geometry" />
        </mxCell>
        <mxCell id="HLmSkkcaPyzwlUYzEDBW-38" value="" style="outlineConnect=0;dashed=0;verticalLabelPosition=bottom;verticalAlign=top;align=center;html=1;shape=mxgraph.aws3.ec2;fillColor=#F58534;gradientColor=none;" parent="HLmSkkcaPyzwlUYzEDBW-2" vertex="1">
          <mxGeometry x="52.5" y="45" width="55" height="50" as="geometry" />
        </mxCell>
        <mxCell id="HLmSkkcaPyzwlUYzEDBW-43" value="Bastion Host&lt;div&gt;&lt;br&gt;&lt;/div&gt;" style="text;html=1;align=center;verticalAlign=middle;whiteSpace=wrap;rounded=0;" parent="HLmSkkcaPyzwlUYzEDBW-2" vertex="1">
          <mxGeometry x="52.5" y="110" width="60" height="30" as="geometry" />
        </mxCell>
        <mxCell id="HLmSkkcaPyzwlUYzEDBW-23" value="VPC- A" style="points=[[0,0],[0.25,0],[0.5,0],[0.75,0],[1,0],[1,0.25],[1,0.5],[1,0.75],[1,1],[0.75,1],[0.5,1],[0.25,1],[0,1],[0,0.75],[0,0.5],[0,0.25]];outlineConnect=0;gradientColor=none;html=1;whiteSpace=wrap;fontSize=12;fontStyle=0;container=1;pointerEvents=0;collapsible=0;recursiveResize=0;shape=mxgraph.aws4.group;grIcon=mxgraph.aws4.group_vpc2;strokeColor=#8C4FFF;fillColor=none;verticalAlign=top;align=left;spacingLeft=30;fontColor=#AAB7B8;dashed=0;" parent="HLmSkkcaPyzwlUYzEDBW-21" vertex="1">
          <mxGeometry x="40" y="415" width="260" height="225" as="geometry" />
        </mxCell>
        <mxCell id="yBH7yMdOETm99ocfjCqe-1" value="Private subnet" style="points=[[0,0],[0.25,0],[0.5,0],[0.75,0],[1,0],[1,0.25],[1,0.5],[1,0.75],[1,1],[0.75,1],[0.5,1],[0.25,1],[0,1],[0,0.75],[0,0.5],[0,0.25]];outlineConnect=0;html=1;whiteSpace=wrap;fontSize=12;fontStyle=0;container=1;pointerEvents=0;collapsible=0;recursiveResize=0;shape=mxgraph.aws4.group;grIcon=mxgraph.aws4.group_security_group;grStroke=0;strokeColor=#b85450;fillColor=#f8cecc;verticalAlign=top;align=left;spacingLeft=30;dashed=0;" vertex="1" parent="HLmSkkcaPyzwlUYzEDBW-23">
          <mxGeometry x="70" y="50" width="120" height="145" as="geometry" />
        </mxCell>
        <mxCell id="yBH7yMdOETm99ocfjCqe-2" value="" style="outlineConnect=0;dashed=0;verticalLabelPosition=bottom;verticalAlign=top;align=center;html=1;shape=mxgraph.aws3.ec2;fillColor=#F58534;gradientColor=none;" vertex="1" parent="yBH7yMdOETm99ocfjCqe-1">
          <mxGeometry x="36" y="42" width="48" height="61" as="geometry" />
        </mxCell>
        <mxCell id="HLmSkkcaPyzwlUYzEDBW-42" value="ec2 test" style="text;html=1;align=center;verticalAlign=middle;whiteSpace=wrap;rounded=0;" parent="yBH7yMdOETm99ocfjCqe-1" vertex="1">
          <mxGeometry x="30" y="103" width="60" height="30" as="geometry" />
        </mxCell>
        <mxCell id="HLmSkkcaPyzwlUYzEDBW-25" value="VPC- B" style="points=[[0,0],[0.25,0],[0.5,0],[0.75,0],[1,0],[1,0.25],[1,0.5],[1,0.75],[1,1],[0.75,1],[0.5,1],[0.25,1],[0,1],[0,0.75],[0,0.5],[0,0.25]];outlineConnect=0;gradientColor=none;html=1;whiteSpace=wrap;fontSize=12;fontStyle=0;container=1;pointerEvents=0;collapsible=0;recursiveResize=0;shape=mxgraph.aws4.group;grIcon=mxgraph.aws4.group_vpc2;strokeColor=#8C4FFF;fillColor=none;verticalAlign=top;align=left;spacingLeft=30;fontColor=#AAB7B8;dashed=0;" parent="HLmSkkcaPyzwlUYzEDBW-21" vertex="1">
          <mxGeometry x="410" y="415" width="240" height="225" as="geometry" />
        </mxCell>
        <mxCell id="HLmSkkcaPyzwlUYzEDBW-9" value="Private subnet" style="points=[[0,0],[0.25,0],[0.5,0],[0.75,0],[1,0],[1,0.25],[1,0.5],[1,0.75],[1,1],[0.75,1],[0.5,1],[0.25,1],[0,1],[0,0.75],[0,0.5],[0,0.25]];outlineConnect=0;gradientColor=none;html=1;whiteSpace=wrap;fontSize=12;fontStyle=0;container=1;pointerEvents=0;collapsible=0;recursiveResize=0;shape=mxgraph.aws4.group;grIcon=mxgraph.aws4.group_security_group;grStroke=0;strokeColor=#00A4A6;fillColor=#E6F6F7;verticalAlign=top;align=left;spacingLeft=30;fontColor=#147EBA;dashed=0;" parent="HLmSkkcaPyzwlUYzEDBW-25" vertex="1">
          <mxGeometry x="60" y="40" width="120" height="145" as="geometry" />
        </mxCell>
        <mxCell id="HLmSkkcaPyzwlUYzEDBW-28" style="edgeStyle=orthogonalEdgeStyle;rounded=0;orthogonalLoop=1;jettySize=auto;html=1;" parent="HLmSkkcaPyzwlUYzEDBW-21" source="HLmSkkcaPyzwlUYzEDBW-6" target="HLmSkkcaPyzwlUYzEDBW-25" edge="1">
          <mxGeometry relative="1" as="geometry" />
        </mxCell>
        <mxCell id="HLmSkkcaPyzwlUYzEDBW-29" style="edgeStyle=orthogonalEdgeStyle;rounded=0;orthogonalLoop=1;jettySize=auto;html=1;" parent="HLmSkkcaPyzwlUYzEDBW-21" source="HLmSkkcaPyzwlUYzEDBW-6" target="HLmSkkcaPyzwlUYzEDBW-23" edge="1">
          <mxGeometry relative="1" as="geometry" />
        </mxCell>
        <mxCell id="HLmSkkcaPyzwlUYzEDBW-33" style="edgeStyle=orthogonalEdgeStyle;rounded=0;orthogonalLoop=1;jettySize=auto;html=1;" parent="HLmSkkcaPyzwlUYzEDBW-21" source="HLmSkkcaPyzwlUYzEDBW-6" target="HLmSkkcaPyzwlUYzEDBW-22" edge="1">
          <mxGeometry relative="1" as="geometry">
            <Array as="points">
              <mxPoint x="375" y="300" />
              <mxPoint x="370" y="300" />
            </Array>
          </mxGeometry>
        </mxCell>
        <mxCell id="HLmSkkcaPyzwlUYzEDBW-6" value="" style="sketch=0;points=[[0,0,0],[0.25,0,0],[0.5,0,0],[0.75,0,0],[1,0,0],[0,1,0],[0.25,1,0],[0.5,1,0],[0.75,1,0],[1,1,0],[0,0.25,0],[0,0.5,0],[0,0.75,0],[1,0.25,0],[1,0.5,0],[1,0.75,0]];outlineConnect=0;fontColor=#232F3E;fillColor=#8C4FFF;strokeColor=#ffffff;dashed=0;verticalLabelPosition=bottom;verticalAlign=top;align=center;html=1;fontSize=12;fontStyle=0;aspect=fixed;shape=mxgraph.aws4.resourceIcon;resIcon=mxgraph.aws4.transit_gateway;" parent="HLmSkkcaPyzwlUYzEDBW-21" vertex="1">
          <mxGeometry x="350" y="330" width="50" height="50" as="geometry" />
        </mxCell>
        <mxCell id="HLmSkkcaPyzwlUYzEDBW-36" style="edgeStyle=orthogonalEdgeStyle;rounded=0;orthogonalLoop=1;jettySize=auto;html=1;" parent="1" source="HLmSkkcaPyzwlUYzEDBW-34" edge="1">
          <mxGeometry relative="1" as="geometry">
            <mxPoint x="429.5" y="160" as="targetPoint" />
          </mxGeometry>
        </mxCell>
        <mxCell id="HLmSkkcaPyzwlUYzEDBW-34" value="" style="sketch=0;outlineConnect=0;fontColor=#232F3E;gradientColor=none;fillColor=#8C4FFF;strokeColor=none;dashed=0;verticalLabelPosition=bottom;verticalAlign=top;align=center;html=1;fontSize=12;fontStyle=0;aspect=fixed;pointerEvents=1;shape=mxgraph.aws4.internet_gateway;" parent="1" vertex="1">
          <mxGeometry x="389.81" y="210" width="60" height="60" as="geometry" />
        </mxCell>
        <mxCell id="HLmSkkcaPyzwlUYzEDBW-35" style="edgeStyle=orthogonalEdgeStyle;rounded=0;orthogonalLoop=1;jettySize=auto;html=1;" parent="1" source="HLmSkkcaPyzwlUYzEDBW-22" target="HLmSkkcaPyzwlUYzEDBW-34" edge="1">
          <mxGeometry relative="1" as="geometry" />
        </mxCell>
        <mxCell id="HLmSkkcaPyzwlUYzEDBW-37" value="" style="image;aspect=fixed;perimeter=ellipsePerimeter;html=1;align=center;shadow=0;dashed=0;spacingTop=3;image=img/lib/active_directory/internet_cloud.svg;" parent="1" vertex="1">
          <mxGeometry x="389.81" y="110" width="79.37" height="50" as="geometry" />
        </mxCell>
      </root>
    </mxGraphModel>
  </diagram>
</mxfile>
